<svg width="145" height="26" viewBox="0 0 145 26" fill="none" xmlns="http://www.w3.org/2000/svg">
<rect width="145" height="26" fill="#F5F5F5"/>
<path d="M1.58203 21V3.96094H3.62109V21H1.58203ZM9.32812 21L4.64062 15.1055L6.02344 13.7578L11.7305 21H9.32812ZM3.19922 16.7695L3.1875 14.1328H3.69141L9.05859 8.73047H11.5312L5.71875 14.4961L5.49609 14.5781L3.19922 16.7695ZM13.4414 21V3.96094H15.4805V21H13.4414ZM21.9844 21.2344C21.1875 21.2344 20.4805 21.082 19.8633 20.7773C19.2461 20.4727 18.7656 20.043 18.4219 19.4883C18.0781 18.9258 17.9062 18.2773 17.9062 17.543V17.5195C17.9062 16.4648 18.293 15.625 19.0664 15C19.8477 14.375 20.9453 14.0234 22.3594 13.9453L26.8945 13.6758V15.2695L22.5938 15.5391C21.7578 15.5859 21.1133 15.7812 20.6602 16.125C20.2148 16.4688 19.9922 16.9297 19.9922 17.5078V17.5312C19.9922 18.125 20.2148 18.5977 20.6602 18.9492C21.1133 19.293 21.707 19.4648 22.4414 19.4648C23.0898 19.4648 23.6719 19.3281 24.1875 19.0547C24.7031 18.7812 25.1133 18.4102 25.418 17.9414C25.7227 17.4727 25.875 16.9453 25.875 16.3594V12.6914C25.875 11.9492 25.6406 11.3672 25.1719 10.9453C24.7031 10.5156 24.0352 10.3008 23.168 10.3008C22.3945 10.3008 21.7656 10.4648 21.2812 10.793C20.8047 11.1211 20.5039 11.5547 20.3789 12.0938L20.3555 12.1875H18.375L18.3867 12.0703C18.457 11.3984 18.6914 10.793 19.0898 10.2539C19.4961 9.71484 20.0469 9.28906 20.7422 8.97656C21.4375 8.65625 22.2578 8.49609 23.2031 8.49609C24.1797 8.49609 25.0156 8.66406 25.7109 9C26.4141 9.32812 26.957 9.79297 27.3398 10.3945C27.7227 10.9961 27.9141 11.7109 27.9141 12.5391V21H25.875V19.043H25.8047C25.5625 19.4883 25.2461 19.875 24.8555 20.2031C24.4648 20.5312 24.0273 20.7852 23.543 20.9648C23.0586 21.1445 22.5391 21.2344 21.9844 21.2344ZM34.0898 21L29.5664 8.73047H31.7109L35.0977 18.8203H35.168L38.5547 8.73047H40.6875L36.1758 21H34.0898ZM42.6094 21V8.73047H44.6484V21H42.6094ZM43.6289 6.59766C43.2695 6.59766 42.9609 6.47266 42.7031 6.22266C42.4531 5.96484 42.3281 5.65625 42.3281 5.29688C42.3281 4.9375 42.4531 4.63281 42.7031 4.38281C42.9609 4.125 43.2695 3.99609 43.6289 3.99609C43.9961 3.99609 44.3047 4.125 44.5547 4.38281C44.8047 4.63281 44.9297 4.9375 44.9297 5.29688C44.9297 5.65625 44.8047 5.96484 44.5547 6.22266C44.3047 6.47266 43.9961 6.59766 43.6289 6.59766ZM48.7734 25.1602C48.5938 25.1602 48.4062 25.1484 48.2109 25.125C48.0234 25.1094 47.8594 25.0898 47.7188 25.0664V23.4023C47.8125 23.418 47.918 23.4336 48.0352 23.4492C48.1602 23.4648 48.2852 23.4727 48.4102 23.4727C49.0508 23.4727 49.5625 23.3516 49.9453 23.1094C50.3281 22.875 50.6406 22.4102 50.8828 21.7148L51.1172 21.0117L46.5703 8.73047H48.75L52.3359 19.5352L51.832 18.9258H52.5L52.0078 19.5352L55.5938 8.73047H57.7383L52.9453 21.7617C52.6484 22.5664 52.3164 23.2188 51.9492 23.7188C51.5898 24.2188 51.1562 24.582 50.6484 24.8086C50.1406 25.043 49.5156 25.1602 48.7734 25.1602ZM64.1602 21.2344C63.0195 21.2344 62.0234 20.9766 61.1719 20.4609C60.3203 19.9375 59.6562 19.1992 59.1797 18.2461C58.7109 17.293 58.4766 16.168 58.4766 14.8711V14.8477C58.4766 13.5352 58.7109 12.4062 59.1797 11.4609C59.6562 10.5156 60.3203 9.78516 61.1719 9.26953C62.0234 8.75391 63.0156 8.49609 64.1484 8.49609C65.2891 8.49609 66.2852 8.75391 67.1367 9.26953C67.9883 9.78516 68.6484 10.5156 69.1172 11.4609C69.5938 12.4062 69.832 13.5352 69.832 14.8477V14.8711C69.832 16.1758 69.5938 17.3047 69.1172 18.2578C68.6484 19.2031 67.9883 19.9375 67.1367 20.4609C66.293 20.9766 65.3008 21.2344 64.1602 21.2344ZM64.1719 19.4297C64.9062 19.4297 65.5391 19.25 66.0703 18.8906C66.6016 18.5312 67.0117 18.0117 67.3008 17.332C67.5977 16.6523 67.7461 15.832 67.7461 14.8711V14.8477C67.7461 13.8867 67.5977 13.0664 67.3008 12.3867C67.0117 11.707 66.5977 11.1914 66.0586 10.8398C65.5195 10.4805 64.8828 10.3008 64.1484 10.3008C63.4297 10.3008 62.8008 10.4805 62.2617 10.8398C61.7227 11.1992 61.3047 11.7188 61.0078 12.3984C60.7109 13.0703 60.5625 13.8867 60.5625 14.8477V14.8711C60.5625 15.832 60.7109 16.6523 61.0078 17.332C61.3047 18.0117 61.7227 18.5312 62.2617 18.8906C62.8008 19.25 63.4375 19.4297 64.1719 19.4297ZM81.9375 21.2344C80.8984 21.2344 79.9883 20.9727 79.207 20.4492C78.4258 19.9258 77.8164 19.1875 77.3789 18.2344C76.9492 17.2734 76.7344 16.1523 76.7344 14.8711V14.8594C76.7344 13.5703 76.9531 12.4492 77.3906 11.4961C77.8281 10.543 78.4336 9.80469 79.207 9.28125C79.9805 8.75781 80.8828 8.49609 81.9141 8.49609C82.7734 8.49609 83.543 8.69922 84.2227 9.10547C84.9102 9.51172 85.4414 10.0625 85.8164 10.7578H85.8867V3.96094H87.9258V21H85.8867V18.9492H85.8164C85.4336 19.6602 84.9102 20.2188 84.2461 20.625C83.582 21.0312 82.8125 21.2344 81.9375 21.2344ZM82.3477 19.4297C83.0508 19.4297 83.668 19.2422 84.1992 18.8672C84.7383 18.4844 85.1562 17.9531 85.4531 17.2734C85.7578 16.5859 85.9102 15.7852 85.9102 14.8711V14.8594C85.9102 13.9375 85.7578 13.1367 85.4531 12.457C85.1484 11.7773 84.7305 11.25 84.1992 10.875C83.668 10.4922 83.0508 10.3008 82.3477 10.3008C81.6211 10.3008 80.9922 10.4883 80.4609 10.8633C79.9375 11.2305 79.5312 11.7539 79.2422 12.4336C78.9609 13.1055 78.8203 13.9141 78.8203 14.8594V14.8711C78.8203 15.8086 78.9609 16.6211 79.2422 17.3086C79.5312 17.9883 79.9375 18.5117 80.4609 18.8789C80.9922 19.2461 81.6211 19.4297 82.3477 19.4297ZM95.9531 21.2344C94.7812 21.2344 93.7734 20.9766 92.9297 20.4609C92.0859 19.9375 91.4375 19.2031 90.9844 18.2578C90.5312 17.3125 90.3047 16.1992 90.3047 14.918V14.9062C90.3047 13.6328 90.5312 12.5156 90.9844 11.5547C91.4453 10.5938 92.0859 9.84375 92.9062 9.30469C93.7344 8.76562 94.707 8.49609 95.8242 8.49609C96.9414 8.49609 97.9023 8.75391 98.707 9.26953C99.5117 9.78516 100.129 10.5078 100.559 11.4375C100.996 12.3594 101.215 13.4336 101.215 14.6602V15.4219H91.3359V13.8281H100.195L99.1641 15.3047V14.5078C99.1641 13.5547 99.0195 12.7695 98.7305 12.1523C98.4492 11.5273 98.0547 11.0625 97.5469 10.7578C97.0469 10.4531 96.4688 10.3008 95.8125 10.3008C95.1562 10.3008 94.5664 10.4609 94.043 10.7812C93.5273 11.1016 93.1211 11.5742 92.8242 12.1992C92.5273 12.8242 92.3789 13.5938 92.3789 14.5078V15.3047C92.3789 16.1719 92.5234 16.9141 92.8125 17.5312C93.1094 18.1406 93.5273 18.6094 94.0664 18.9375C94.6133 19.2656 95.2578 19.4297 96 19.4297C96.5234 19.4297 96.9883 19.3516 97.3945 19.1953C97.8086 19.0391 98.1523 18.8281 98.4258 18.5625C98.6992 18.2891 98.8945 17.9844 99.0117 17.6484L99.0469 17.543H101.062L101.039 17.6602C100.93 18.1445 100.734 18.6055 100.453 19.043C100.172 19.4727 99.8086 19.8516 99.3633 20.1797C98.918 20.5078 98.4062 20.7656 97.8281 20.9531C97.2578 21.1406 96.6328 21.2344 95.9531 21.2344ZM106.512 21L101.988 8.73047H104.133L107.52 18.8203H107.59L110.977 8.73047H113.109L108.598 21H106.512ZM119.168 21.2344C118.215 21.2344 117.387 21.0859 116.684 20.7891C115.988 20.4844 115.438 20.0625 115.031 19.5234C114.625 18.9766 114.379 18.3438 114.293 17.625L114.281 17.543H116.332L116.355 17.6367C116.488 18.2305 116.789 18.6953 117.258 19.0312C117.727 19.3672 118.371 19.5352 119.191 19.5352C119.746 19.5352 120.223 19.4609 120.621 19.3125C121.02 19.1641 121.328 18.9531 121.547 18.6797C121.766 18.4062 121.875 18.082 121.875 17.707V17.6953C121.875 17.2578 121.734 16.9062 121.453 16.6406C121.18 16.3672 120.688 16.1406 119.977 15.9609L118.031 15.4922C116.875 15.2188 116.016 14.8086 115.453 14.2617C114.898 13.707 114.621 12.9922 114.621 12.1172V12.1055C114.621 11.4023 114.812 10.7812 115.195 10.2422C115.578 9.69531 116.109 9.26953 116.789 8.96484C117.477 8.65234 118.258 8.49609 119.133 8.49609C120.023 8.49609 120.801 8.65234 121.465 8.96484C122.129 9.26953 122.652 9.69141 123.035 10.2305C123.426 10.7695 123.648 11.3789 123.703 12.0586L123.715 12.1875H121.758L121.746 12.1172C121.66 11.5391 121.391 11.0742 120.938 10.7227C120.492 10.3711 119.891 10.1953 119.133 10.1953C118.641 10.1953 118.211 10.2734 117.844 10.4297C117.477 10.5781 117.195 10.7891 117 11.0625C116.805 11.3281 116.707 11.6445 116.707 12.0117V12.0234C116.707 12.4375 116.859 12.7891 117.164 13.0781C117.469 13.3672 117.961 13.5938 118.641 13.7578L120.574 14.2266C121.801 14.5234 122.672 14.9336 123.188 15.457C123.703 15.9805 123.961 16.6797 123.961 17.5547V17.5664C123.961 18.2852 123.754 18.9219 123.34 19.4766C122.926 20.0234 122.355 20.4531 121.629 20.7656C120.902 21.0781 120.082 21.2344 119.168 21.2344Z" fill="white"/>
<path d="M143 16H127V4H143L139.827 10L143 16Z" fill="white"/>
</svg>
