<svg width="152" height="45" viewBox="0 0 152 45" fill="none" xmlns="http://www.w3.org/2000/svg">
<rect width="152" height="45" fill="#F5F5F5"/>
<path d="M1.58203 31.5V14.4609H3.62109V31.5H1.58203ZM9.32812 31.5L4.64062 25.6055L6.02344 24.2578L11.7305 31.5H9.32812ZM3.19922 27.2695L3.1875 24.6328H3.69141L9.05859 19.2305H11.5312L5.71875 24.9961L5.49609 25.0781L3.19922 27.2695ZM13.4414 31.5V14.4609H15.4805V31.5H13.4414ZM21.9844 31.7344C21.1875 31.7344 20.4805 31.582 19.8633 31.2773C19.2461 30.9727 18.7656 30.543 18.4219 29.9883C18.0781 29.4258 17.9062 28.7773 17.9062 28.043V28.0195C17.9062 26.9648 18.293 26.125 19.0664 25.5C19.8477 24.875 20.9453 24.5234 22.3594 24.4453L26.8945 24.1758V25.7695L22.5938 26.0391C21.7578 26.0859 21.1133 26.2812 20.6602 26.625C20.2148 26.9688 19.9922 27.4297 19.9922 28.0078V28.0312C19.9922 28.625 20.2148 29.0977 20.6602 29.4492C21.1133 29.793 21.707 29.9648 22.4414 29.9648C23.0898 29.9648 23.6719 29.8281 24.1875 29.5547C24.7031 29.2812 25.1133 28.9102 25.418 28.4414C25.7227 27.9727 25.875 27.4453 25.875 26.8594V23.1914C25.875 22.4492 25.6406 21.8672 25.1719 21.4453C24.7031 21.0156 24.0352 20.8008 23.168 20.8008C22.3945 20.8008 21.7656 20.9648 21.2812 21.293C20.8047 21.6211 20.5039 22.0547 20.3789 22.5938L20.3555 22.6875H18.375L18.3867 22.5703C18.457 21.8984 18.6914 21.293 19.0898 20.7539C19.4961 20.2148 20.0469 19.7891 20.7422 19.4766C21.4375 19.1562 22.2578 18.9961 23.2031 18.9961C24.1797 18.9961 25.0156 19.1641 25.7109 19.5C26.4141 19.8281 26.957 20.293 27.3398 20.8945C27.7227 21.4961 27.9141 22.2109 27.9141 23.0391V31.5H25.875V29.543H25.8047C25.5625 29.9883 25.2461 30.375 24.8555 30.7031C24.4648 31.0312 24.0273 31.2852 23.543 31.4648C23.0586 31.6445 22.5391 31.7344 21.9844 31.7344ZM34.0898 31.5L29.5664 19.2305H31.7109L35.0977 29.3203H35.168L38.5547 19.2305H40.6875L36.1758 31.5H34.0898ZM42.6094 31.5V19.2305H44.6484V31.5H42.6094ZM43.6289 17.0977C43.2695 17.0977 42.9609 16.9727 42.7031 16.7227C42.4531 16.4648 42.3281 16.1562 42.3281 15.7969C42.3281 15.4375 42.4531 15.1328 42.7031 14.8828C42.9609 14.625 43.2695 14.4961 43.6289 14.4961C43.9961 14.4961 44.3047 14.625 44.5547 14.8828C44.8047 15.1328 44.9297 15.4375 44.9297 15.7969C44.9297 16.1562 44.8047 16.4648 44.5547 16.7227C44.3047 16.9727 43.9961 17.0977 43.6289 17.0977ZM48.7734 35.6602C48.5938 35.6602 48.4062 35.6484 48.2109 35.625C48.0234 35.6094 47.8594 35.5898 47.7188 35.5664V33.9023C47.8125 33.918 47.918 33.9336 48.0352 33.9492C48.1602 33.9648 48.2852 33.9727 48.4102 33.9727C49.0508 33.9727 49.5625 33.8516 49.9453 33.6094C50.3281 33.375 50.6406 32.9102 50.8828 32.2148L51.1172 31.5117L46.5703 19.2305H48.75L52.3359 30.0352L51.832 29.4258H52.5L52.0078 30.0352L55.5938 19.2305H57.7383L52.9453 32.2617C52.6484 33.0664 52.3164 33.7188 51.9492 34.2188C51.5898 34.7188 51.1562 35.082 50.6484 35.3086C50.1406 35.543 49.5156 35.6602 48.7734 35.6602ZM64.1602 31.7344C63.0195 31.7344 62.0234 31.4766 61.1719 30.9609C60.3203 30.4375 59.6562 29.6992 59.1797 28.7461C58.7109 27.793 58.4766 26.668 58.4766 25.3711V25.3477C58.4766 24.0352 58.7109 22.9062 59.1797 21.9609C59.6562 21.0156 60.3203 20.2852 61.1719 19.7695C62.0234 19.2539 63.0156 18.9961 64.1484 18.9961C65.2891 18.9961 66.2852 19.2539 67.1367 19.7695C67.9883 20.2852 68.6484 21.0156 69.1172 21.9609C69.5938 22.9062 69.832 24.0352 69.832 25.3477V25.3711C69.832 26.6758 69.5938 27.8047 69.1172 28.7578C68.6484 29.7031 67.9883 30.4375 67.1367 30.9609C66.293 31.4766 65.3008 31.7344 64.1602 31.7344ZM64.1719 29.9297C64.9062 29.9297 65.5391 29.75 66.0703 29.3906C66.6016 29.0312 67.0117 28.5117 67.3008 27.832C67.5977 27.1523 67.7461 26.332 67.7461 25.3711V25.3477C67.7461 24.3867 67.5977 23.5664 67.3008 22.8867C67.0117 22.207 66.5977 21.6914 66.0586 21.3398C65.5195 20.9805 64.8828 20.8008 64.1484 20.8008C63.4297 20.8008 62.8008 20.9805 62.2617 21.3398C61.7227 21.6992 61.3047 22.2188 61.0078 22.8984C60.7109 23.5703 60.5625 24.3867 60.5625 25.3477V25.3711C60.5625 26.332 60.7109 27.1523 61.0078 27.832C61.3047 28.5117 61.7227 29.0312 62.2617 29.3906C62.8008 29.75 63.4375 29.9297 64.1719 29.9297ZM81.9375 31.7344C80.8984 31.7344 79.9883 31.4727 79.207 30.9492C78.4258 30.4258 77.8164 29.6875 77.3789 28.7344C76.9492 27.7734 76.7344 26.6523 76.7344 25.3711V25.3594C76.7344 24.0703 76.9531 22.9492 77.3906 21.9961C77.8281 21.043 78.4336 20.3047 79.207 19.7812C79.9805 19.2578 80.8828 18.9961 81.9141 18.9961C82.7734 18.9961 83.543 19.1992 84.2227 19.6055C84.9102 20.0117 85.4414 20.5625 85.8164 21.2578H85.8867V14.4609H87.9258V31.5H85.8867V29.4492H85.8164C85.4336 30.1602 84.9102 30.7188 84.2461 31.125C83.582 31.5312 82.8125 31.7344 81.9375 31.7344ZM82.3477 29.9297C83.0508 29.9297 83.668 29.7422 84.1992 29.3672C84.7383 28.9844 85.1562 28.4531 85.4531 27.7734C85.7578 27.0859 85.9102 26.2852 85.9102 25.3711V25.3594C85.9102 24.4375 85.7578 23.6367 85.4531 22.957C85.1484 22.2773 84.7305 21.75 84.1992 21.375C83.668 20.9922 83.0508 20.8008 82.3477 20.8008C81.6211 20.8008 80.9922 20.9883 80.4609 21.3633C79.9375 21.7305 79.5312 22.2539 79.2422 22.9336C78.9609 23.6055 78.8203 24.4141 78.8203 25.3594V25.3711C78.8203 26.3086 78.9609 27.1211 79.2422 27.8086C79.5312 28.4883 79.9375 29.0117 80.4609 29.3789C80.9922 29.7461 81.6211 29.9297 82.3477 29.9297ZM95.9531 31.7344C94.7812 31.7344 93.7734 31.4766 92.9297 30.9609C92.0859 30.4375 91.4375 29.7031 90.9844 28.7578C90.5312 27.8125 90.3047 26.6992 90.3047 25.418V25.4062C90.3047 24.1328 90.5312 23.0156 90.9844 22.0547C91.4453 21.0938 92.0859 20.3438 92.9062 19.8047C93.7344 19.2656 94.707 18.9961 95.8242 18.9961C96.9414 18.9961 97.9023 19.2539 98.707 19.7695C99.5117 20.2852 100.129 21.0078 100.559 21.9375C100.996 22.8594 101.215 23.9336 101.215 25.1602V25.9219H91.3359V24.3281H100.195L99.1641 25.8047V25.0078C99.1641 24.0547 99.0195 23.2695 98.7305 22.6523C98.4492 22.0273 98.0547 21.5625 97.5469 21.2578C97.0469 20.9531 96.4688 20.8008 95.8125 20.8008C95.1562 20.8008 94.5664 20.9609 94.043 21.2812C93.5273 21.6016 93.1211 22.0742 92.8242 22.6992C92.5273 23.3242 92.3789 24.0938 92.3789 25.0078V25.8047C92.3789 26.6719 92.5234 27.4141 92.8125 28.0312C93.1094 28.6406 93.5273 29.1094 94.0664 29.4375C94.6133 29.7656 95.2578 29.9297 96 29.9297C96.5234 29.9297 96.9883 29.8516 97.3945 29.6953C97.8086 29.5391 98.1523 29.3281 98.4258 29.0625C98.6992 28.7891 98.8945 28.4844 99.0117 28.1484L99.0469 28.043H101.062L101.039 28.1602C100.93 28.6445 100.734 29.1055 100.453 29.543C100.172 29.9727 99.8086 30.3516 99.3633 30.6797C98.918 31.0078 98.4062 31.2656 97.8281 31.4531C97.2578 31.6406 96.6328 31.7344 95.9531 31.7344ZM106.512 31.5L101.988 19.2305H104.133L107.52 29.3203H107.59L110.977 19.2305H113.109L108.598 31.5H106.512ZM119.168 31.7344C118.215 31.7344 117.387 31.5859 116.684 31.2891C115.988 30.9844 115.438 30.5625 115.031 30.0234C114.625 29.4766 114.379 28.8438 114.293 28.125L114.281 28.043H116.332L116.355 28.1367C116.488 28.7305 116.789 29.1953 117.258 29.5312C117.727 29.8672 118.371 30.0352 119.191 30.0352C119.746 30.0352 120.223 29.9609 120.621 29.8125C121.02 29.6641 121.328 29.4531 121.547 29.1797C121.766 28.9062 121.875 28.582 121.875 28.207V28.1953C121.875 27.7578 121.734 27.4062 121.453 27.1406C121.18 26.8672 120.688 26.6406 119.977 26.4609L118.031 25.9922C116.875 25.7188 116.016 25.3086 115.453 24.7617C114.898 24.207 114.621 23.4922 114.621 22.6172V22.6055C114.621 21.9023 114.812 21.2812 115.195 20.7422C115.578 20.1953 116.109 19.7695 116.789 19.4648C117.477 19.1523 118.258 18.9961 119.133 18.9961C120.023 18.9961 120.801 19.1523 121.465 19.4648C122.129 19.7695 122.652 20.1914 123.035 20.7305C123.426 21.2695 123.648 21.8789 123.703 22.5586L123.715 22.6875H121.758L121.746 22.6172C121.66 22.0391 121.391 21.5742 120.938 21.2227C120.492 20.8711 119.891 20.6953 119.133 20.6953C118.641 20.6953 118.211 20.7734 117.844 20.9297C117.477 21.0781 117.195 21.2891 117 21.5625C116.805 21.8281 116.707 22.1445 116.707 22.5117V22.5234C116.707 22.9375 116.859 23.2891 117.164 23.5781C117.469 23.8672 117.961 24.0938 118.641 24.2578L120.574 24.7266C121.801 25.0234 122.672 25.4336 123.188 25.957C123.703 26.4805 123.961 27.1797 123.961 28.0547V28.0664C123.961 28.7852 123.754 29.4219 123.34 29.9766C122.926 30.5234 122.355 30.9531 121.629 31.2656C120.902 31.5781 120.082 31.7344 119.168 31.7344Z" fill="#3A3A3A"/>
<path d="M143 26.5H127V14.5H143L139.827 20.5L143 26.5Z" fill="#232426"/>
</svg>
